<?xml version="1.0" encoding="UTF-8" standalone="no"?>
<svg width="92px" height="92px" viewBox="0 0 92 92" version="1.1" xmlns="http://www.w3.org/2000/svg" xmlns:xlink="http://www.w3.org/1999/xlink">
    <!-- Generator: Sketch 41 (35326) - http://www.bohemiancoding.com/sketch -->
    <title>Coming-Soon</title>
    <desc>Created with Sketch.</desc>
    <defs></defs>
    <g id="SVGs" stroke="none" stroke-width="1" fill="none" fill-rule="evenodd">
        <g id="Coming-Soon">
            <circle id="Oval" stroke="#B5AFA7" stroke-width="2" cx="46" cy="46" r="45"></circle>
            <path d="M24.4875,41.763 C24.4225,41.971 24.3055,42.309 24.0065,42.712 C23.6295,43.193 23.1095,43.609 22.2515,43.609 C20.8085,43.609 19.7035,42.452 19.7035,40.359 C19.7035,38.396 20.7435,37.161 22.2385,37.161 C23.1875,37.161 23.6945,37.681 23.8895,37.967 C24.1235,38.318 24.2015,38.708 24.2275,38.877 L25.9435,38.422 C25.7355,37.785 25.0595,35.588 22.1995,35.588 C19.8595,35.588 17.8445,37.265 17.8445,40.385 C17.8445,43.453 19.7035,45.234 22.1345,45.234 C23.6295,45.234 24.6565,44.571 25.3065,43.817 C25.7615,43.271 25.9825,42.738 26.0995,42.439 L24.4875,41.763 Z M36.7325,40.411 C36.7455,37.278 34.6135,35.588 32.3385,35.588 C29.8295,35.588 27.9315,37.616 27.9315,40.424 C27.9315,41.581 28.2435,42.777 29.1535,43.83 C30.0895,44.909 31.1555,45.234 32.3125,45.234 C35.1335,45.234 36.7195,43.037 36.7325,40.411 Z M35.0165,40.606 C34.9775,42.816 33.5085,43.648 32.3645,43.648 C30.8435,43.648 29.6995,42.413 29.6995,40.346 C29.6995,38.435 30.7525,37.161 32.3255,37.161 C34.1325,37.161 35.0555,38.812 35.0165,40.606 Z M45.3635,35.822 L43.6085,42.634 L41.8145,35.822 L39.3185,35.822 L39.3185,45 L40.9955,45 L40.8265,37.46 L42.8155,45 L44.3625,45 L46.3385,37.46 L46.1825,45 L47.8595,45 L47.8595,35.822 L45.3635,35.822 Z M50.9265,35.822 L50.9265,45 L52.6165,45 L52.6165,35.822 L50.9265,35.822 Z M61.3515,42.309 L57.2955,35.822 L55.7485,35.822 L55.7485,45 L57.4255,45 L57.3215,38.565 L61.3385,45 L62.8335,45 L62.8335,35.822 L61.1435,35.822 L61.3515,42.309 Z M69.9305,39.982 L69.9305,41.49 L72.2185,41.49 C72.0625,43.115 70.9185,43.622 69.9565,43.622 C68.4615,43.622 67.3565,42.465 67.3565,40.45 C67.3565,38.643 68.2015,37.135 69.9305,37.135 C71.4905,37.135 71.9845,38.448 72.1535,38.955 L73.7915,38.292 C73.2325,36.758 71.8285,35.588 69.9175,35.588 C67.3955,35.588 65.4845,37.616 65.4845,40.502 C65.4845,42.972 66.9795,45.234 69.8135,45.234 C70.5805,45.234 71.5035,45.026 72.3225,44.22 L72.3225,45 L73.7915,45 L73.7915,39.982 L69.9305,39.982 Z M25.8385,57.284 C26.5275,58.402 27.6065,58.844 28.2175,59.026 C28.7765,59.182 29.3485,59.234 29.8555,59.234 C31.8055,59.234 33.7555,58.389 33.7555,56.283 C33.7555,54.32 32.0135,53.813 30.7785,53.553 L29.8295,53.345 C28.9975,53.189 28.1395,53.033 28.1395,52.253 C28.1395,51.551 28.9455,51.135 29.8685,51.135 C31.3375,51.135 31.9355,52.045 32.2475,52.5 L33.6515,51.447 C33.0015,50.563 31.9355,49.588 29.9595,49.588 C27.8015,49.588 26.3325,50.706 26.3325,52.448 C26.3325,53.969 27.4635,54.528 27.8795,54.697 C28.1655,54.814 28.4515,54.879 29.0365,55.022 L30.1415,55.256 C30.9735,55.451 30.9995,55.464 31.2075,55.542 C31.4935,55.659 31.8965,55.867 31.8965,56.452 C31.8965,56.764 31.7795,57.232 31.1165,57.505 C30.7915,57.635 30.4535,57.661 30.1285,57.661 C28.1915,57.661 27.5025,56.608 27.2815,56.27 L25.8385,57.284 Z M44.6355,54.411 C44.6485,51.278 42.5165,49.588 40.2415,49.588 C37.7325,49.588 35.8345,51.616 35.8345,54.424 C35.8345,55.581 36.1465,56.777 37.0565,57.83 C37.9925,58.909 39.0585,59.234 40.2155,59.234 C43.0365,59.234 44.6225,57.037 44.6355,54.411 Z M42.9195,54.606 C42.8805,56.816 41.4115,57.648 40.2675,57.648 C38.7465,57.648 37.6025,56.413 37.6025,54.346 C37.6025,52.435 38.6555,51.161 40.2285,51.161 C42.0355,51.161 42.9585,52.812 42.9195,54.606 Z M55.6585,54.411 C55.6715,51.278 53.5395,49.588 51.2645,49.588 C48.7555,49.588 46.8575,51.616 46.8575,54.424 C46.8575,55.581 47.1695,56.777 48.0795,57.83 C49.0155,58.909 50.0815,59.234 51.2385,59.234 C54.0595,59.234 55.6455,57.037 55.6585,54.411 Z M53.9425,54.606 C53.9035,56.816 52.4345,57.648 51.2905,57.648 C49.7695,57.648 48.6255,56.413 48.6255,54.346 C48.6255,52.435 49.6785,51.161 51.2515,51.161 C53.0585,51.161 53.9815,52.812 53.9425,54.606 Z M63.9255,56.309 L59.8695,49.822 L58.3225,49.822 L58.3225,59 L59.9995,59 L59.8955,52.565 L63.9125,59 L65.4075,59 L65.4075,49.822 L63.7175,49.822 L63.9255,56.309 Z" id="COMING-SOON" fill="#7C959E"></path>
        </g>
    </g>
</svg>