<?xml version="1.0" encoding="UTF-8" standalone="no"?>
<svg width="20px" height="31px" viewBox="0 0 20 31" version="1.1" xmlns="http://www.w3.org/2000/svg" xmlns:xlink="http://www.w3.org/1999/xlink">
    <!-- Generator: Sketch 41 (35326) - http://www.bohemiancoding.com/sketch -->
    <title>Google-Icon</title>
    <desc>Created with Sketch.</desc>
    <defs></defs>
    <g id="SVGs" stroke="none" stroke-width="1" fill="none" fill-rule="evenodd">
        <g id="Google-Icon" fill="#ffffff">
            <path d="M9.79434555,29.4671159 C6.11518325,29.4671159 3.4582897,27.134369 3.4582897,24.3323319 C3.4582897,21.5862293 6.75406632,19.3001877 10.4329494,19.3401808 C11.2915881,19.3491303 12.0915881,19.4875681 12.8178709,19.7230522 C14.8152182,21.1141424 16.2476789,21.9003013 16.652007,23.4854841 C16.7279581,23.8071073 16.7692845,24.13768 16.7692845,24.4755242 C16.7692845,27.2772816 14.9668412,29.4671159 9.79434555,29.4671159 Z M10.7613264,13.0344087 C8.29151832,12.9602956 5.94457243,10.267051 5.51874346,7.01949587 C5.09207679,3.7713814 6.74792321,1.28509437 9.21745201,1.35892786 C11.6861431,1.4333207 14.0339267,4.03958717 14.4603141,7.28742196 C14.8858639,10.5355364 13.2300175,13.1082422 10.7613264,13.0344087 Z M15.8818848,17.8442135 C15.0157068,17.230053 13.3590227,15.7363231 13.3590227,14.858152 C13.3590227,13.8289578 13.6522164,13.3221915 15.1986038,12.1117697 C16.7838045,10.8711432 17.9057592,9.18975317 17.9057592,7.1607304 C17.9057592,4.74603948 16.8318325,2.23737866 14.8160558,1.67803399 L17.8549389,1.67803399 L20,0 L10.4150785,0 C6.1174171,0 2.07329843,3.26069972 2.07329843,7.03795424 C2.07329843,10.8974324 5.00272251,14.0129822 9.37438045,14.0129822 C9.67818499,14.0129822 9.9738918,14.0068294 10.262897,13.985854 C9.97919721,14.5300964 9.77647469,15.1428584 9.77647469,15.779113 C9.77647469,16.8516564 10.3525305,17.7214373 11.0810471,18.4312457 C10.5306806,18.4312457 9.99930192,18.447187 9.41933682,18.447187 C4.09661431,18.447187 0,21.8426888 0,25.3634838 C0,28.8308614 4.49116928,31 9.8138918,31 C15.8818848,31 19.2337871,27.5516401 19.2337871,24.0837032 C19.2337871,21.3032009 18.4142408,19.6380318 15.8818848,17.8442135 L15.8818848,17.8442135 Z" id="Fill-2"></path>
        </g>
    </g>
</svg>
