<?xml version="1.0" encoding="UTF-8" standalone="no"?>
<svg width="92px" height="92px" viewBox="0 0 92 92" version="1.1" xmlns="http://www.w3.org/2000/svg" xmlns:xlink="http://www.w3.org/1999/xlink">
    <!-- Generator: Sketch 41 (35326) - http://www.bohemiancoding.com/sketch -->
    <title>Lived-Experience-Coming-Soon</title>
    <desc>Created with Sketch.</desc>
    <defs></defs>
    <g id="SVGs" stroke="none" stroke-width="1" fill="none" fill-rule="evenodd">
        <g id="Lived-Experience-Coming-Soon">
            <circle id="Oval" stroke="#B5AFA7" stroke-width="2" cx="46" cy="46" r="45"></circle>
            <path d="M24.4875,41.763 C24.4225,41.971 24.3055,42.309 24.0065,42.712 C23.6295,43.193 23.1095,43.609 22.2515,43.609 C20.8085,43.609 19.7035,42.452 19.7035,40.359 C19.7035,38.396 20.7435,37.161 22.2385,37.161 C23.1875,37.161 23.6945,37.681 23.8895,37.967 C24.1235,38.318 24.2015,38.708 24.2275,38.877 L25.9435,38.422 C25.7355,37.785 25.0595,35.588 22.1995,35.588 C19.8595,35.588 17.8445,37.265 17.8445,40.385 C17.8445,43.453 19.7035,45.234 22.1345,45.234 C23.6295,45.234 24.6565,44.571 25.3065,43.817 C25.7615,43.271 25.9825,42.738 26.0995,42.439 L24.4875,41.763 Z M36.7325,40.411 C36.7455,37.278 34.6135,35.588 32.3385,35.588 C29.8295,35.588 27.9315,37.616 27.9315,40.424 C27.9315,41.581 28.2435,42.777 29.1535,43.83 C30.0895,44.909 31.1555,45.234 32.3125,45.234 C35.1335,45.234 36.7195,43.037 36.7325,40.411 Z M35.0165,40.606 C34.9775,42.816 33.5085,43.648 32.3645,43.648 C30.8435,43.648 29.6995,42.413 29.6995,40.346 C29.6995,38.435 30.7525,37.161 32.3255,37.161 C34.1325,37.161 35.0555,38.812 35.0165,40.606 Z M45.3635,35.822 L43.6085,42.634 L41.8145,35.822 L39.3185,35.822 L39.3185,45 L40.9955,45 L40.8265,37.46 L42.8155,45 L44.3625,45 L46.3385,37.46 L46.1825,45 L47.8595,45 L47.8595,35.822 L45.3635,35.822 Z M50.9265,35.822 L50.9265,45 L52.6165,45 L52.6165,35.822 L50.9265,35.822 Z M61.3515,42.309 L57.2955,35.822 L55.7485,35.822 L55.7485,45 L57.4255,45 L57.3215,38.565 L61.3385,45 L62.8335,45 L62.8335,35.822 L61.1435,35.822 L61.3515,42.309 Z M69.9305,39.982 L69.9305,41.49 L72.2185,41.49 C72.0625,43.115 70.9185,43.622 69.9565,43.622 C68.4615,43.622 67.3565,42.465 67.3565,40.45 C67.3565,38.643 68.2015,37.135 69.9305,37.135 C71.4905,37.135 71.9845,38.448 72.1535,38.955 L73.7915,38.292 C73.2325,36.758 71.8285,35.588 69.9175,35.588 C67.3955,35.588 65.4845,37.616 65.4845,40.502 C65.4845,42.972 66.9795,45.234 69.8135,45.234 C70.5805,45.234 71.5035,45.026 72.3225,44.22 L72.3225,45 L73.7915,45 L73.7915,39.982 L69.9305,39.982 Z M32.761,57.648 C33.255,57.284 34.425,56.296 34.62,56.127 C35.582,55.256 36.453,54.242 36.453,52.825 C36.453,51.161 35.296,50.082 33.632,50.082 C32.683,50.082 31.851,50.472 31.37,51.031 C31.032,51.434 30.629,52.227 30.629,53.462 L32.267,53.605 C32.254,52.981 32.215,51.577 33.502,51.577 C34.321,51.577 34.659,52.214 34.659,52.89 C34.659,54.047 33.853,54.892 33.372,55.386 C32.852,55.919 31.747,56.972 30.629,57.739 L30.629,59 L36.596,59 L36.596,57.648 L32.761,57.648 Z M45.071,54.567 C45.071,53.709 45.019,52.37 44.343,51.356 C43.667,50.342 42.705,50.082 41.925,50.082 C40.794,50.082 39.923,50.654 39.442,51.317 C38.727,52.305 38.662,53.761 38.662,54.658 C38.662,55.672 38.753,56.881 39.299,57.752 C39.598,58.22 40.339,59.117 41.847,59.117 C42.302,59.117 42.757,59.039 43.173,58.844 C44.85,58.077 45.071,56.14 45.071,54.567 Z M43.394,54.619 C43.394,56.465 43.121,57.674 41.886,57.674 C40.482,57.674 40.352,56.114 40.352,54.684 C40.352,53.176 40.508,51.512 41.912,51.512 C43.004,51.512 43.394,52.617 43.394,54.619 Z M49.919,50.225 C49.568,51.876 48.463,51.889 47.644,51.902 L47.475,51.902 L47.475,52.903 L48.905,52.903 C49.62,52.903 49.62,53.15 49.62,53.982 L49.62,59 L51.219,59 L51.219,50.225 L49.919,50.225 Z M61.462,50.199 L55.638,50.199 L55.638,51.733 L59.603,51.733 C58.55,53.202 57.874,54.164 57.211,55.789 C56.665,57.141 56.509,58.168 56.366,59 L58.511,59 C58.771,56.218 59.772,53.722 61.462,51.616 L61.462,50.199 Z" id="COMING-2017" fill="#A9B2B7"></path>
        </g>
    </g>
</svg>