<?xml version="1.0" encoding="UTF-8"?>
<svg width="218px" height="95px" viewBox="0 0 218 95" version="1.1" xmlns="http://www.w3.org/2000/svg" xmlns:xlink="http://www.w3.org/1999/xlink">
    <!-- Generator: Sketch 40.3 (33839) - http://www.bohemiancoding.com/sketch -->
    <title>LogoBlack</title>
    <desc>Created with Sketch.</desc>
    <defs>
        <polygon id="path-1" points="42.309 130.94 104.221 130.94 104.221 118.698 42.309 118.698"></polygon>
    </defs>
    <g id="Homepage" stroke="none" stroke-width="1" fill="none" fill-rule="evenodd">
        <g id="HomepageNavSide" transform="translate(-1069.000000, -116.000000)">
            <g id="Group-20" transform="translate(494.000000, 0.000000)">
                <g id="LogoBlack" transform="translate(575.000000, 116.000000)">
                    <path d="M1.669,11.829 L15.756,11.829 C16.8,11.829 17.325,12.332 17.325,13.346 L17.325,69.014 C17.325,70.125 17.843,70.631 18.993,70.631 L30.266,70.631 C31.309,70.631 31.935,70.125 31.935,69.014 L31.935,13.346 C31.935,12.332 32.459,11.829 33.5,11.829 L47.591,11.829 C48.633,11.829 49.26,11.32 49.26,10.209 L49.26,1.808 C49.26,0.796 48.633,0.29 47.591,0.29 L1.669,0.29 C0.519,0.29 0,0.796 0,1.808 L0,10.209 C0,11.32 0.519,11.829 1.669,11.829" id="Fill-1" fill="#4A4A4A" fill-rule="evenodd"></path>
                    <path d="M69.92,13.548 C69.92,12.533 70.335,11.928 71.588,11.928 L76.395,11.928 C81.297,11.928 86.62,14.762 86.62,22.859 C86.62,31.161 82.443,33.386 77.117,33.79 L71.693,33.79 C70.13,33.79 69.92,32.778 69.92,32.169 L69.92,13.548 L69.92,13.548 Z M56.975,70.631 L68.354,70.631 C69.398,70.631 69.92,70.022 69.92,69.01 L69.92,47.255 C69.92,46.644 70.13,45.53 71.796,45.43 L77.434,45.43 C78.685,45.43 79.419,46.138 79.731,47.048 L87.976,69.414 C88.286,70.125 89.018,70.631 89.542,70.631 L101.853,70.631 C102.903,70.631 103.422,70.125 103.422,69.113 C103.422,68.809 103.212,68.508 103.109,68.201 L93.51,43.506 C93.299,43.1 93.299,42.696 93.299,42.293 C93.401,41.787 93.611,41.281 93.924,40.977 C97.994,37.736 101.546,32.169 101.546,22.251 C101.546,6.869 91.105,0.29 76.702,0.29 L56.975,0.29 C55.931,0.29 55.305,0.798 55.305,1.808 L55.305,69.01 C55.305,70.022 55.931,70.631 56.975,70.631 L56.975,70.631 Z" id="Fill-2" fill="#4A4A4A" fill-rule="evenodd"></path>
                    <path d="M131.487,72.25 C146.207,72.25 154.659,65.165 154.659,52.817 L154.659,1.808 C154.659,0.793 154.136,0.291 153.093,0.291 L141.716,0.291 C140.568,0.291 140.051,0.793 140.051,1.808 L140.051,51.907 C140.051,56.259 138.169,60.715 131.487,60.715 C125.016,60.715 122.72,56.259 122.72,51.907 L122.72,1.808 C122.72,0.793 122.202,0.291 121.052,0.291 L109.674,0.291 C108.629,0.291 108.109,0.793 108.109,1.808 L108.109,52.817 C108.109,65.165 116.768,72.25 131.487,72.25" id="Fill-3" fill="#4A4A4A" fill-rule="evenodd"></path>
                    <path d="M164.146,70.631 L196.917,70.631 C198.069,70.631 198.591,70.125 198.591,69.01 L198.591,60.513 C198.591,59.495 198.069,58.989 196.917,58.989 L178.651,58.989 C177.611,58.989 177.089,58.487 177.089,57.475 L177.089,42.898 C177.089,41.887 177.611,41.381 178.651,41.381 L194.203,41.381 C195.248,41.381 195.772,40.875 195.772,39.859 L195.772,31.462 C195.772,30.348 195.248,29.845 194.203,29.845 L178.552,29.845 C178.027,29.845 177.089,29.438 177.089,28.426 L177.089,13.346 C177.089,12.332 177.611,11.829 178.651,11.829 L196.917,11.829 C198.069,11.829 198.591,11.32 198.591,10.209 L198.591,1.805 C198.591,0.796 198.069,0.29 196.917,0.29 L164.146,0.29 C162.997,0.29 162.477,0.796 162.477,1.805 L162.477,69.01 C162.477,70.125 162.997,70.631 164.146,70.631" id="Fill-4" fill="#4A4A4A" fill-rule="evenodd"></path>
                    <path d="M207.528,41.386 L213.566,41.386 C214.178,41.386 214.485,41.091 214.485,40.44 L214.485,22.819 C214.485,22.228 214.849,21.932 215.395,21.932 C215.761,21.932 216.003,22.049 216.19,22.404 L226.245,40.795 C226.433,41.207 226.734,41.386 227.103,41.386 L232.773,41.386 C233.382,41.386 233.748,41.091 233.748,40.497 L233.748,1.18 C233.748,0.586 233.441,0.291 232.773,0.291 L226.734,0.291 C226.126,0.291 225.822,0.586 225.822,1.18 L225.822,18.386 C225.822,18.976 225.518,19.272 224.91,19.272 C224.479,19.272 224.174,19.034 224.054,18.741 L214.485,0.881 C214.297,0.467 213.995,0.291 213.627,0.291 L207.465,0.291 C206.857,0.291 206.553,0.586 206.553,1.18 L206.553,40.44 C206.553,41.091 206.857,41.386 207.528,41.386" id="Fill-5" fill="#4A4A4A" fill-rule="evenodd"></path>
                    <path d="M238.069,7.032 L246.296,7.032 C246.909,7.032 247.214,7.327 247.214,7.919 L247.214,40.44 C247.214,41.09 247.518,41.386 248.189,41.386 L254.776,41.386 C255.385,41.386 255.751,41.09 255.751,40.44 L255.751,7.919 C255.751,7.327 256.052,7.032 256.661,7.032 L264.897,7.032 C265.505,7.032 265.869,6.736 265.869,6.085 L265.869,1.177 C265.869,0.586 265.505,0.29 264.897,0.29 L238.069,0.29 C237.4,0.29 237.091,0.586 237.091,1.177 L237.091,6.085 C237.091,6.736 237.4,7.032 238.069,7.032" id="Fill-6" fill="#4A4A4A" fill-rule="evenodd"></path>
                    <path d="M269.581,41.386 L276.231,41.386 C276.84,41.386 277.143,41.031 277.143,40.44 L277.143,25.184 C277.143,24.592 277.448,24.296 278.056,24.296 L286.349,24.296 C286.957,24.296 287.264,24.592 287.264,25.184 L287.264,40.44 C287.264,41.031 287.571,41.386 288.179,41.386 L294.827,41.386 C295.494,41.386 295.801,41.031 295.801,40.44 L295.801,1.177 C295.801,0.586 295.494,0.29 294.827,0.29 L288.179,0.29 C287.571,0.29 287.264,0.586 287.264,1.177 L287.264,16.669 C287.264,17.26 286.957,17.556 286.349,17.556 L278.056,17.556 C277.448,17.556 277.143,17.26 277.143,16.669 L277.143,1.177 C277.143,0.586 276.84,0.29 276.231,0.29 L269.581,0.29 C268.91,0.29 268.603,0.586 268.603,1.177 L268.603,40.44 C268.603,41.031 268.91,41.386 269.581,41.386" id="Fill-7" fill="#4A4A4A" fill-rule="evenodd"></path>
                    <path d="M295.747,99.151 L3.155,99.151 C1.569,99.151 0.283,100.452 0.283,102.06 C0.283,103.67 1.569,104.971 3.155,104.971 L295.747,104.971 C297.334,104.971 298.618,103.67 298.618,102.06 C298.618,100.452 297.334,99.151 295.747,99.151" id="Fill-8" fill="#4A4A4A" fill-rule="evenodd"></path>
                    <path d="M118.271,128.618 L112.966,128.618 L112.966,125.363 L118.271,125.363 C119.277,125.363 119.853,125.957 119.853,126.994 C119.853,128.026 119.277,128.618 118.271,128.618 L118.271,128.618 Z M112.966,121.043 L117.781,121.043 C118.962,121.043 119.124,121.581 119.124,122.164 C119.124,122.636 118.985,123.265 117.781,123.265 L112.966,123.265 L112.966,121.043 L112.966,121.043 Z M120.635,124.045 C121.099,123.547 121.344,122.87 121.344,122.081 C121.344,120.055 120.037,118.942 117.662,118.942 L111.187,118.942 C110.954,118.942 110.764,119.13 110.764,119.367 L110.764,130.297 C110.764,130.53 110.954,130.719 111.187,130.719 L118.003,130.719 C120.502,130.719 122.115,129.264 122.115,127.013 C122.115,125.789 121.606,124.771 120.635,124.045 L120.635,124.045 Z" id="Fill-9" fill="#4A4A4A" fill-rule="evenodd"></path>
                    <path d="M36.457,118.942 L35.22,118.942 C35.078,118.942 34.947,119.01 34.869,119.13 L30.776,125.292 L26.706,119.13 C26.628,119.01 26.497,118.942 26.353,118.942 L25.098,118.942 C24.865,118.942 24.675,119.13 24.675,119.364 L24.675,130.297 C24.675,130.53 24.865,130.721 25.098,130.721 L26.436,130.721 C26.668,130.721 26.858,130.53 26.858,130.297 L26.858,123.143 L30.426,128.465 C30.584,128.7 30.972,128.698 31.13,128.465 L34.697,123.143 L34.697,130.297 C34.697,130.53 34.886,130.721 35.119,130.721 L36.457,130.721 C36.69,130.721 36.879,130.53 36.879,130.297 L36.879,119.364 C36.879,119.13 36.69,118.942 36.457,118.942" id="Fill-10" fill="#4A4A4A" fill-rule="evenodd"></path>
                    <path d="M150.673,123.811 L146.264,123.811 L146.264,121.043 L150.732,121.043 C151.799,121.043 152.337,121.515 152.337,122.449 C152.337,123.031 152.166,123.811 150.673,123.811 L150.673,123.811 Z M152.226,125.761 C153.669,125.274 154.602,123.988 154.602,122.406 C154.602,120.272 153.126,118.943 150.752,118.943 L144.486,118.943 C144.252,118.943 144.061,119.131 144.061,119.364 L144.061,130.297 C144.061,130.531 144.252,130.722 144.486,130.722 L145.84,130.722 C146.073,130.722 146.264,130.531 146.264,130.297 L146.264,125.932 L149.842,125.932 L152.457,130.507 C152.534,130.638 152.673,130.722 152.824,130.722 L154.32,130.722 C154.475,130.722 154.611,130.638 154.685,130.511 C154.761,130.379 154.765,130.221 154.69,130.086 L152.226,125.761 L152.226,125.761 Z" id="Fill-11" fill="#4A4A4A" fill-rule="evenodd"></path>
                    <path d="M137.741,128.618 L130.476,128.618 L130.476,125.507 L134.435,125.507 C134.668,125.507 134.861,125.317 134.861,125.084 L134.861,123.829 C134.861,123.595 134.668,123.404 134.435,123.404 L130.476,123.404 L130.476,121.042 L137.298,121.042 C137.53,121.042 137.719,120.852 137.719,120.619 L137.719,119.364 C137.719,119.13 137.53,118.94 137.298,118.94 L128.698,118.94 C128.464,118.94 128.273,119.13 128.273,119.364 L128.273,130.297 C128.273,130.53 128.464,130.718 128.698,130.718 L137.741,130.718 C137.974,130.718 138.162,130.53 138.162,130.297 L138.162,129.041 C138.162,128.809 137.974,128.618 137.741,128.618" id="Fill-12" fill="#4A4A4A" fill-rule="evenodd"></path>
                    <mask id="mask-2" fill="white">
                        <use xlink:href="#path-1"></use>
                    </mask>
                    <g id="Clip-14"></g>
                    <path d="M103.797,118.939 L102.561,118.939 C102.419,118.939 102.289,119.014 102.209,119.13 L98.119,125.294 L94.048,119.133 C93.973,119.014 93.836,118.939 93.694,118.939 L92.439,118.939 C92.205,118.939 92.016,119.13 92.016,119.364 L92.016,130.297 C92.016,130.53 92.205,130.718 92.439,130.718 L93.776,130.718 C94.01,130.718 94.201,130.53 94.201,130.297 L94.201,123.146 L97.769,128.464 C97.923,128.701 98.316,128.701 98.469,128.464 L102.038,123.146 L102.038,130.297 C102.038,130.53 102.226,130.718 102.459,130.718 L103.797,130.718 C104.03,130.718 104.221,130.53 104.221,130.297 L104.221,119.364 C104.221,119.13 104.03,118.939 103.797,118.939" id="Fill-13" fill="#4A4A4A" fill-rule="evenodd"></path>
                    <path d="M48.391,128.882 C46.166,128.882 44.55,127.189 44.55,124.862 C44.55,122.52 46.166,120.821 48.391,120.821 C50.613,120.821 52.228,122.52 52.228,124.862 C52.228,127.189 50.613,128.882 48.391,128.882 L48.391,128.882 Z M48.391,118.698 C44.868,118.698 42.309,121.287 42.309,124.862 C42.309,128.419 44.868,131 48.391,131 C51.925,131 54.491,128.419 54.491,124.862 C54.491,121.287 51.925,118.698 48.391,118.698 L48.391,118.698 Z" id="Fill-15" fill="#4A4A4A" fill-rule="evenodd"></path>
                    <path d="M69.96,118.939 L68.46,118.939 C68.298,118.939 68.15,119.034 68.079,119.178 L64.24,127.152 L60.406,119.182 C60.335,119.034 60.188,118.939 60.023,118.939 L58.543,118.939 C58.396,118.939 58.261,119.016 58.184,119.138 C58.108,119.264 58.099,119.417 58.161,119.546 L63.435,130.479 C63.506,130.627 63.654,130.718 63.816,130.718 L64.671,130.718 C64.833,130.718 64.98,130.627 65.048,130.479 L70.342,119.548 C70.404,119.417 70.395,119.264 70.319,119.138 C70.242,119.016 70.108,118.939 69.96,118.939" id="Fill-17" fill="#4A4A4A" fill-rule="evenodd"></path>
                    <path d="M85.256,128.618 L77.991,128.618 L77.991,125.504 L81.95,125.504 C82.185,125.504 82.374,125.316 82.374,125.084 L82.374,123.829 C82.374,123.596 82.185,123.404 81.95,123.404 L77.991,123.404 L77.991,121.042 L84.809,121.042 C85.043,121.042 85.234,120.852 85.234,120.618 L85.234,119.364 C85.234,119.13 85.043,118.939 84.809,118.939 L76.209,118.939 C75.976,118.939 75.788,119.13 75.788,119.364 L75.788,130.297 C75.788,130.53 75.976,130.718 76.209,130.718 L85.256,130.718 C85.489,130.718 85.68,130.53 85.68,130.297 L85.68,129.042 C85.68,128.808 85.489,128.618 85.256,128.618" id="Fill-18" fill="#4A4A4A" fill-rule="evenodd"></path>
                    <path d="M4.667,125.664 L6.381,122.187 L8.112,125.664 L4.667,125.664 L4.667,125.664 Z M7.328,119.182 C7.256,119.039 7.11,118.945 6.949,118.945 L5.812,118.945 C5.654,118.945 5.504,119.039 5.434,119.185 L0.079,130.115 C0.014,130.246 0.023,130.403 0.099,130.528 C0.176,130.65 0.312,130.724 0.456,130.724 L1.919,130.724 C2.081,130.724 2.225,130.633 2.298,130.488 L3.622,127.782 L9.141,127.782 L10.507,130.49 C10.577,130.636 10.725,130.724 10.884,130.724 L12.364,130.724 C12.508,130.724 12.646,130.65 12.725,130.525 C12.801,130.403 12.806,130.243 12.742,130.113 L7.328,119.182 L7.328,119.182 Z" id="Fill-19" fill="#4A4A4A" fill-rule="evenodd"></path>
                    <path d="M225.665,118.886 L224.287,118.886 C224.054,118.886 223.866,119.077 223.866,119.31 L223.866,130.342 C223.866,130.575 224.054,130.767 224.287,130.767 L225.665,130.767 C225.898,130.767 226.089,130.575 226.089,130.342 L226.089,119.31 C226.089,119.077 225.898,118.886 225.665,118.886" id="Fill-20" fill="#4A4A4A" fill-rule="evenodd"></path>
                    <path d="M217.269,118.948 L206.706,118.948 C206.473,118.948 206.282,119.136 206.282,119.369 L206.282,120.627 C206.282,120.86 206.473,121.048 206.706,121.048 L210.883,121.048 L210.883,130.3 C210.883,130.534 211.077,130.724 211.308,130.724 L212.665,130.724 C212.899,130.724 213.089,130.534 213.089,130.3 L213.089,121.048 L217.269,121.048 C217.503,121.048 217.694,120.86 217.694,120.627 L217.694,119.369 C217.694,119.136 217.503,118.948 217.269,118.948" id="Fill-21" fill="#4A4A4A" fill-rule="evenodd"></path>
                    <path d="M189.642,118.948 L188.288,118.948 C188.055,118.948 187.864,119.136 187.864,119.369 L187.864,126.413 L181.503,119.094 C181.424,118.999 181.308,118.948 181.184,118.948 L180.477,118.948 C180.243,118.948 180.052,119.136 180.052,119.369 L180.052,130.3 C180.052,130.534 180.243,130.724 180.477,130.724 L181.834,130.724 C182.067,130.724 182.255,130.534 182.255,130.3 L182.255,123.253 L188.635,130.581 C188.718,130.67 188.835,130.724 188.957,130.724 L189.642,130.724 C189.876,130.724 190.067,130.534 190.067,130.3 L190.067,119.369 C190.067,119.136 189.876,118.948 189.642,118.948" id="Fill-22" fill="#4A4A4A" fill-rule="evenodd"></path>
                    <path d="M282.455,118.948 L280.952,118.948 C280.793,118.948 280.645,119.043 280.571,119.187 L276.735,127.158 L272.896,119.187 C272.825,119.043 272.677,118.948 272.517,118.948 L271.038,118.948 C270.89,118.948 270.753,119.023 270.679,119.145 C270.6,119.267 270.591,119.424 270.656,119.555 L275.927,130.485 C275.995,130.63 276.146,130.724 276.308,130.724 L277.159,130.724 C277.321,130.724 277.469,130.632 277.544,130.488 L282.833,119.555 C282.898,119.424 282.893,119.267 282.814,119.145 C282.736,119.023 282.601,118.948 282.455,118.948" id="Fill-23" fill="#4A4A4A" fill-rule="evenodd"></path>
                    <path d="M200.064,118.886 L198.69,118.886 C198.453,118.886 198.265,119.077 198.265,119.31 L198.265,130.342 C198.265,130.575 198.453,130.767 198.69,130.767 L200.064,130.767 C200.297,130.767 200.488,130.575 200.488,130.342 L200.488,119.31 C200.488,119.077 200.297,118.886 200.064,118.886" id="Fill-24" fill="#4A4A4A" fill-rule="evenodd"></path>
                    <path d="M296.855,128.624 L289.587,128.624 L289.587,125.513 L293.547,125.513 C293.782,125.513 293.97,125.323 293.97,125.09 L293.97,123.834 C293.97,123.601 293.782,123.41 293.547,123.41 L289.587,123.41 L289.587,121.048 L296.41,121.048 C296.644,121.048 296.831,120.858 296.831,120.625 L296.831,119.369 C296.831,119.136 296.644,118.948 296.41,118.948 L287.81,118.948 C287.578,118.948 287.384,119.136 287.384,119.369 L287.384,130.303 C287.384,130.536 287.578,130.727 287.81,130.727 L296.855,130.727 C297.088,130.727 297.276,130.536 297.276,130.303 L297.276,129.048 C297.276,128.815 297.088,128.624 296.855,128.624" id="Fill-25" fill="#4A4A4A" fill-rule="evenodd"></path>
                    <path d="M235.443,125.664 L237.156,122.187 L238.887,125.664 L235.443,125.664 L235.443,125.664 Z M238.1,119.182 C238.029,119.039 237.885,118.945 237.724,118.945 L236.587,118.945 C236.427,118.945 236.279,119.039 236.208,119.185 L230.85,130.115 C230.787,130.246 230.799,130.403 230.872,130.528 C230.952,130.65 231.083,130.724 231.231,130.724 L232.694,130.724 C232.853,130.724 233,130.633 233.072,130.488 L234.396,127.782 L239.917,127.782 L241.282,130.49 C241.351,130.636 241.499,130.724 241.657,130.724 L243.137,130.724 C243.283,130.724 243.422,130.65 243.5,130.525 C243.576,130.403 243.582,130.243 243.516,130.113 L238.1,119.182 L238.1,119.182 Z" id="Fill-26" fill="#4A4A4A" fill-rule="evenodd"></path>
                    <path d="M257.27,118.948 L246.707,118.948 C246.473,118.948 246.282,119.136 246.282,119.369 L246.282,120.627 C246.282,120.86 246.473,121.048 246.707,121.048 L250.886,121.048 L250.886,130.3 C250.886,130.534 251.077,130.724 251.311,130.724 L252.665,130.724 C252.899,130.724 253.089,130.534 253.089,130.3 L253.089,121.048 L257.27,121.048 C257.503,121.048 257.694,120.86 257.694,120.627 L257.694,119.369 C257.694,119.136 257.503,118.948 257.27,118.948" id="Fill-27" fill="#4A4A4A" fill-rule="evenodd"></path>
                    <path d="M265.127,118.886 L263.753,118.886 C263.519,118.886 263.326,119.077 263.326,119.31 L263.326,130.342 C263.326,130.575 263.519,130.767 263.753,130.767 L265.127,130.767 C265.36,130.767 265.552,130.575 265.552,130.342 L265.552,119.31 C265.552,119.077 265.36,118.886 265.127,118.886" id="Fill-28" fill="#4A4A4A" fill-rule="evenodd"></path>
                    <path d="M171.913,118.886 L170.539,118.886 C170.302,118.886 170.115,119.077 170.115,119.31 L170.115,130.342 C170.115,130.575 170.302,130.767 170.539,130.767 L171.913,130.767 C172.147,130.767 172.335,130.575 172.335,130.342 L172.335,119.31 C172.335,119.077 172.147,118.886 171.913,118.886" id="Fill-29" fill="#4A4A4A" fill-rule="evenodd"></path>
                </g>
            </g>
        </g>
    </g>
</svg>