<?xml version="1.0" encoding="UTF-8" standalone="no"?>
<svg width="172px" height="172px" viewBox="0 0 172 172" version="1.1" xmlns="http://www.w3.org/2000/svg" xmlns:xlink="http://www.w3.org/1999/xlink">
    <!-- Generator: Sketch 40.3 (33839) - http://www.bohemiancoding.com/sketch -->
    <title>Movember-Footer-Logo</title>
    <desc>Created with Sketch.</desc>
    <defs></defs>
    <g id="SVGs" stroke="none" stroke-width="1" fill="none" fill-rule="evenodd">
        <g id="Movember-Footer-Logo" fill="#FFFFFF">
            <path d="M112.010348,143.9246 L111.308514,142.082032 L101.448448,145.831217 L102.14826,147.674459 L106.004641,146.209439 L109.934509,156.548181 L112.067654,155.736453 L108.137112,145.397711 L112.010348,143.9246 L112.010348,143.9246 Z M95.9180464,154.638868 L96.7985419,148.763954 L96.8531515,148.752493 L99.8256664,153.889166 L95.9180464,154.638868 L95.9180464,154.638868 Z M95.2290216,146.778457 L92.7695673,160.519849 L95.0813735,160.076905 L95.6348855,156.459862 L100.743917,155.48026 L102.593901,158.638178 L104.996723,158.178379 L97.6136406,146.322703 L95.2290216,146.778457 L95.2290216,146.778457 Z M87.0753371,155.781624 C86.9533082,156.345249 86.7274537,156.836736 86.3997962,157.252038 C86.0728128,157.668015 85.6244748,157.990953 85.0541079,158.220853 C84.4857636,158.450753 83.7583098,158.559972 82.8697241,158.548511 L80.6253371,158.520869 L80.7419724,149.212292 L82.9863594,149.239934 C83.8749451,149.251395 84.6023989,149.380166 85.1633271,149.624224 C85.726952,149.868282 86.1671997,150.203355 86.483396,150.6254 C86.8016149,151.050141 87.0139856,151.546347 87.1218564,152.112669 C87.2310756,152.680339 87.2802916,153.291831 87.2728755,153.949169 C87.2647852,154.606507 87.2000627,155.216651 87.0753371,155.781624 L87.0753371,155.781624 Z M88.2430386,149.352524 C87.7886328,148.756538 87.1973659,148.283929 86.472609,147.934023 C85.7465036,147.583443 84.8855597,147.402085 83.8877548,147.38995 L78.4834274,147.321182 L78.3189244,160.353998 L83.7219034,160.422766 C84.7190342,160.434227 85.58672,160.274443 86.3195673,159.943415 C87.0544371,159.611712 87.6571653,159.15461 88.1264033,158.570085 C88.5976638,157.98556 88.9495923,157.299906 89.1848855,156.510426 C89.4181562,155.723644 89.5428818,154.878881 89.5550172,153.978833 C89.5651301,153.078786 89.4640013,152.230652 89.249608,151.437128 C89.0338664,150.643603 88.6987927,149.948511 88.2430386,149.352524 L88.2430386,149.352524 Z M61.1991533,142.100235 L57.9852775,148.982393 C57.801223,149.378818 57.5928975,149.771872 57.3643462,150.161555 C57.1351207,150.552587 56.8539824,150.868109 56.5202571,151.107447 C56.1865318,151.34746 55.7867357,151.486344 55.3174976,151.52275 C54.8516306,151.560505 54.2826121,151.42297 53.6084196,151.108796 C52.9355754,150.794622 52.4643148,150.446065 52.1912669,150.064472 C51.9215898,149.682879 51.7692223,149.286453 51.7395579,148.87587 C51.7098934,148.465287 51.7705707,148.047288 51.9229382,147.621198 C52.0746315,147.195108 52.2431797,146.783851 52.4292568,146.387426 L55.6411101,139.505942 L53.5733616,138.541173 L50.0446378,146.10022 C49.6900125,146.860034 49.4965193,147.576027 49.464158,148.246174 C49.4338194,148.916322 49.5416902,149.541972 49.7884447,150.12043 C50.0351991,150.699561 50.4120728,151.221386 50.9210881,151.686579 C51.4287551,152.15312 52.0469897,152.554265 52.7744434,152.894732 C53.5032455,153.233177 54.2071025,153.448918 54.8900596,153.539934 C55.5736908,153.629602 56.2148479,153.585779 56.817576,153.402399 C57.4203042,153.220367 57.9684227,152.902148 58.46328,152.447742 C58.9554406,151.994685 59.3815303,151.386563 59.7375039,150.6254 L63.2648793,143.066353 L61.1991533,142.100235 L61.1991533,142.100235 Z M71.6214958,155.565209 L71.5857636,155.55577 L68.0813108,144.817231 L65.7405143,144.245516 L62.6520383,156.909548 L64.7615867,157.423283 L67.0342897,148.113358 L67.0862026,148.125494 L70.5778457,158.843133 L72.917968,159.414848 L76.0091408,146.750815 L73.9002665,146.236406 L71.6214958,155.565209 L71.6214958,155.565209 Z M47.9155378,137.881138 C47.8690185,138.445437 47.716651,139.007714 47.461132,139.567294 C47.2062872,140.126874 46.883349,140.648024 46.4950141,141.131421 C46.1053308,141.615491 45.6637347,142.040232 45.1715742,142.410364 C44.6787394,142.779147 44.1623079,143.045453 43.6216055,143.214675 C43.0815773,143.380527 42.5280652,143.412888 41.9576983,143.314456 C41.3880056,143.216698 40.8344936,142.949718 40.2944653,142.514189 C39.7537629,142.079335 39.3748667,141.593242 39.1564283,141.059956 C38.9406867,140.524647 38.8550643,139.97518 38.9015836,139.411555 C38.948777,138.849279 39.1018188,138.287676 39.3566635,137.728097 C39.6108341,137.167168 39.9357949,136.646018 40.3227814,136.161947 C40.7124647,135.6799 41.1540608,135.252462 41.6475698,134.883678 C42.1383819,134.514895 42.6554876,134.247241 43.1955158,134.081389 C43.7362183,133.914864 44.2904045,133.879806 44.8607714,133.979586 C45.4270931,134.078692 45.983302,134.344998 46.5233302,134.779853 C47.0633584,135.214707 47.4429288,135.699451 47.6613672,136.236108 C47.877783,136.769395 47.9627313,137.317513 47.9155378,137.881138 L47.9155378,137.881138 Z M49.9886798,137.781358 C49.9603638,136.962888 49.761477,136.168015 49.3873001,135.398087 C49.0144716,134.630182 48.4494983,133.939809 47.6923801,133.32899 C46.9339135,132.718846 46.1390405,132.313656 45.3077611,132.113421 C44.4764817,131.913186 43.6580119,131.886218 42.8516776,132.033866 C42.0446692,132.18084 41.2706961,132.487598 40.5290844,132.952117 C39.7874726,133.418658 39.1267639,134.009925 38.5456099,134.730637 C37.9590624,135.461461 37.5174663,136.238131 37.2208216,137.060646 C36.9235027,137.885183 36.7900125,138.70635 36.8169802,139.525494 C36.8446221,140.345312 37.0468799,141.137488 37.4237535,141.901348 C37.8019755,142.666557 38.3682973,143.353559 39.1267639,143.963703 C39.8838821,144.574522 40.6774067,144.982408 41.504641,145.187363 C42.3305268,145.392317 43.1489966,145.421308 43.9539824,145.274334 C44.7596425,145.126011 45.5336156,144.819928 46.2765757,144.354735 C47.0195359,143.889542 47.6842897,143.292208 48.2715114,142.562731 C48.8506428,141.842694 49.2902164,141.070069 49.5861869,140.24688 C49.8821574,139.421668 50.0169959,138.601176 49.9886798,137.781358 L49.9886798,137.781358 Z M148.317639,51.4961743 C148.113358,51.995751 147.834917,52.4272342 147.482314,52.7953434 C147.127015,53.1587331 146.711712,53.4506585 146.231687,53.6583098 C145.753685,53.8659611 145.238601,53.9738319 144.683067,53.9738319 C144.118093,53.9738319 143.596943,53.8659611 143.112872,53.6583098 C142.631499,53.4506585 142.212151,53.1587331 141.856852,52.7953434 C141.502901,52.4272342 141.227156,51.995751 141.026921,51.4961743 C140.824663,50.9939009 140.724208,50.4498275 140.724208,49.86328 C140.724208,49.2868454 140.824663,48.7535591 141.026921,48.2587018 C141.227156,47.7638445 141.502901,47.335058 141.856852,46.9723424 C142.212151,46.6096268 142.631499,46.3251176 143.112872,46.1120728 C143.596943,45.9044214 144.118093,45.7992474 144.683067,45.7992474 C145.238601,45.7992474 145.754359,45.9044214 146.231687,46.1120728 C146.711712,46.3251176 147.127015,46.6096268 147.482314,46.9723424 C147.834917,47.335058 148.113358,47.7638445 148.317639,48.2587018 C148.515851,48.7535591 148.618329,49.2868454 148.618329,49.86328 C148.618329,50.4498275 148.515851,50.9939009 148.317639,51.4961743 L148.317639,51.4961743 Z M149.103747,47.9768893 C148.850251,47.3957353 148.500345,46.8934619 148.063468,46.4673722 C147.629288,46.0385858 147.118924,45.7041863 146.543164,45.4628253 C145.96201,45.2153967 145.338382,45.094042 144.683067,45.094042 C144.025729,45.094042 143.402101,45.2153967 142.819599,45.4628253 C142.234399,45.7041863 141.721339,46.0385858 141.28244,46.4673722 C140.840169,46.8934619 140.49296,47.3957353 140.238115,47.9768893 C139.977203,48.5587175 139.851129,49.1897617 139.851129,49.86328 C139.851129,50.5523048 139.977203,51.1907651 140.238115,51.7752901 C140.49296,52.3618376 140.840169,52.8695045 141.28244,53.3003136 C141.721339,53.7317968 142.234399,54.0661963 142.819599,54.3055347 C143.402101,54.5421762 144.025729,54.6635309 144.683067,54.6635309 C145.338382,54.6635309 145.96201,54.5421762 146.543164,54.3055347 C147.118924,54.0661963 147.629288,53.7317968 148.063468,53.3003136 C148.500345,52.8695045 148.850251,52.3618376 149.103747,51.7752901 C149.357918,51.1907651 149.48534,50.5523048 149.48534,49.86328 C149.48534,49.1897617 149.357918,48.5587175 149.103747,47.9768893 L149.103747,47.9768893 Z M85.9986516,170.390028 C39.4658827,170.390028 1.60929759,132.531421 1.60929759,85.9986516 C1.60997178,39.4665569 39.4672311,1.60929759 86,1.60997178 C132.532769,1.61064597 170.389354,39.4679053 170.38868,86 C170.38868,132.532095 132.531421,170.390028 85.9986516,170.390028 L85.9986516,170.390028 Z M86,2.84217094e-14 C38.5799937,2.84217094e-14 0,38.5793195 0,85.9986516 C-0.000674192537,133.419332 38.5786453,171.999326 85.9986516,172 C133.419332,172 171.997977,133.420006 171.998652,86 C171.998652,38.5806679 133.42068,0.000674192537 86,2.84217094e-14 L86,2.84217094e-14 Z M113.399859,140.995908 L119.760191,152.373581 L121.751082,151.260489 L115.392098,139.882816 L113.399859,140.995908 L113.399859,140.995908 Z M144.591377,49.5659611 L143.683913,49.5659611 L143.683913,47.7854186 L144.83476,47.7854186 C144.980386,47.7854186 145.126685,47.7955315 145.279053,47.8164315 C145.42805,47.8380056 145.560865,47.8798056 145.676152,47.9377861 C145.790765,47.9984635 145.885826,48.0847601 145.959313,48.1953277 C146.030103,48.3058953 146.065836,48.4562402 146.065836,48.6450141 C146.065836,48.868846 146.02471,49.0400909 145.947178,49.1634682 C145.864252,49.2848228 145.754359,49.376513 145.618846,49.4371903 C145.483333,49.4978677 145.325572,49.5342741 145.148934,49.5504547 C144.975666,49.5578708 144.788915,49.5659611 144.591377,49.5659611 L144.591377,49.5659611 Z M146.514174,49.7924898 C146.797335,49.555174 146.937567,49.1897617 146.937567,48.6820947 C146.937567,48.1454374 146.779806,47.7429445 146.456193,47.4773126 C146.135278,47.2143775 145.643791,47.0802132 144.977689,47.0802132 L142.811508,47.0802132 L142.811508,52.6800564 L143.683913,52.6800564 L143.683913,50.2711665 L144.605535,50.2711665 L146.128536,52.6800564 L147.066337,52.6800564 L145.464456,50.2077924 C145.88313,50.1659925 146.231687,50.0264346 146.514174,49.7924898 L146.514174,49.7924898 Z M131.179664,142.535089 C130.962574,143.071747 130.583678,143.555817 130.042976,143.991345 C129.502948,144.424851 128.946739,144.692505 128.378394,144.790938 C127.810724,144.891392 127.255864,144.856334 126.715836,144.689809 C126.175133,144.523957 125.658028,144.256303 125.167215,143.886845 C124.673706,143.518062 124.23211,143.091298 123.842427,142.609251 C123.452744,142.124506 123.131828,141.602681 122.876309,141.043101 C122.621464,140.484196 122.469771,139.921919 122.421903,139.359643 C122.373362,138.796018 122.460332,138.246551 122.676074,137.711242 C122.894512,137.177281 123.273409,136.691863 123.814111,136.256334 C124.354139,135.82148 124.909,135.553826 125.478018,135.456742 C126.047711,135.357636 126.601223,135.389997 127.141251,135.556522 C127.681954,135.723722 128.199059,135.991377 128.69122,136.36016 C129.18338,136.730966 129.624976,137.155707 130.013311,137.639777 C130.402995,138.123173 130.726607,138.64365 130.980778,139.203904 C131.236971,139.763484 131.388664,140.324412 131.435183,140.889385 C131.482377,141.45301 131.398103,142.001129 131.179664,142.535089 L131.179664,142.535089 Z M131.791157,136.207118 C131.209329,135.487755 130.549969,134.894465 129.809031,134.429272 C129.066745,133.965428 128.292098,133.65867 127.487112,133.511022 C126.679429,133.364048 125.86096,133.390342 125.02968,133.589903 C124.198401,133.790138 123.403528,134.196676 122.64641,134.80682 C121.889291,135.417639 121.32297,136.107338 120.948793,136.875917 C120.577313,137.645171 120.375729,138.438696 120.348761,139.258514 C120.321119,140.077658 120.455284,140.900172 120.752603,141.723362 C121.047225,142.546551 121.486124,143.318501 122.06593,144.039213 C122.653826,144.770038 123.319254,145.366698 124.060865,145.832565 C124.802477,146.297758 125.57645,146.604516 126.382785,146.750815 C127.189793,146.899138 128.00624,146.869473 128.8328,146.665193 C129.658686,146.45889 130.452211,146.052352 131.212026,145.442208 C131.970492,144.830041 132.536814,144.14169 132.913688,143.37783 C133.289887,142.614644 133.492819,141.821794 133.519787,141.003998 C133.547429,140.18418 133.41259,139.362339 133.117294,138.538476 C132.819975,137.713939 132.378379,136.937269 131.791157,136.207118 L131.791157,136.207118 Z M134.757604,123.154077 L142.090796,129.351929 L142.067874,129.380245 L130.893807,127.724428 L129.33777,129.564973 L139.290875,137.980245 L140.693195,136.321731 L133.373487,130.133992 L133.409893,130.092192 L144.559015,131.749357 L146.115052,129.909486 L136.161947,121.495563 L134.757604,123.154077 L134.757604,123.154077 Z M140.945343,82.4166667 L140.387786,85.4963782 L134.487927,89.3197241 L108.790405,73.0049389 L99.7535278,71.8473503 L95.412402,72.8674036 L90.9357636,75.1947162 L87.2344465,78.1031828 L85.929884,78.811085 L85.6291941,78.811085 L79.2756036,74.3074788 L75.9545312,72.7979617 L72.774365,71.9612888 L68.8620257,71.965334 L62.770022,73.0049389 L37.0677799,89.3197241 L32.3605676,85.6912198 L32.1920194,73.5759799 L23.9823769,93.8880527 L42.3554719,100.579414 L57.8039197,97.7889307 L72.1871433,97.548244 L84.6981342,93.1302603 L85.5354813,92.5733772 L85.5354813,92.6016933 L85.7788648,92.5625902 L86.0229225,92.6016933 L86.0229225,92.5733772 L86.8595955,93.1302603 L99.3705864,97.5489182 L113.752462,97.7889307 L129.203606,100.579414 L147.576701,93.8880527 L141.949216,72.1028692 L140.945343,82.4166667 L140.945343,82.4166667 Z M136.80243,32.4178739 L139.412904,35.047899 C139.617858,35.2542019 139.79989,35.4726403 139.958325,35.7011916 C140.116761,35.9297429 140.219238,36.1724522 140.266431,36.4259486 C140.311602,36.679445 140.285983,36.9423801 140.186877,37.2113829 C140.085748,37.4830825 139.888209,37.7635466 139.594936,38.0561461 C139.104124,38.5456099 138.599828,38.7768579 138.088115,38.7532612 C137.576403,38.7296645 137.063343,38.4599875 136.550282,37.9415334 L133.913515,35.2852148 L136.80243,32.4178739 L136.80243,32.4178739 Z M128.8746,40.2857008 L132.68244,36.5061775 L135.048855,38.8907965 C135.417639,39.2609282 135.672484,39.6128567 135.812716,39.9459078 C135.952948,40.2769363 135.992051,40.6133584 135.924632,40.9524773 C135.859235,41.2909219 135.698103,41.6394795 135.443932,41.9968015 C135.187739,42.352101 134.84862,42.7397617 134.425227,43.1604578 C134.20207,43.3836156 133.978912,43.6249765 133.757777,43.885889 C133.537316,44.1488241 133.388993,44.4380527 133.310113,44.7562716 L135.033349,46.4929915 C135.051552,46.1302759 135.242349,45.6880056 135.605064,45.1655064 C135.968454,44.642333 136.42286,44.1097209 136.967607,43.5696927 C137.330997,43.2110223 137.586516,42.8638131 137.738884,42.5327846 C137.890577,42.2044528 137.974177,41.89365 137.986987,41.6057698 C138.001145,41.3185638 137.96339,41.0589997 137.875071,40.8311226 C137.785403,40.6025713 137.680229,40.4104265 137.560897,40.254688 L137.586516,40.2304171 C137.691016,40.2823299 137.864958,40.3537943 138.109015,40.4441361 C138.353073,40.5351521 138.649044,40.5796488 138.99895,40.576952 C139.346833,40.5742553 139.729774,40.4940263 140.147774,40.3362653 C140.566447,40.17783 140.995234,39.8818595 141.435481,39.4443086 C142.220916,38.664942 142.582283,37.799953 142.516886,36.854735 C142.450815,35.9074945 141.912135,34.9231734 140.901521,33.9044685 L136.516573,29.4864848 L127.266651,38.6662904 L128.8746,40.2857008 L128.8746,40.2857008 Z M84.2801348,23.5987614 L84.1190028,21.6334901 L76.9159298,22.2234086 L76.6044528,18.4202885 L83.1542333,17.8849796 L83.00254,16.0289276 L76.4520853,16.5655848 L76.1729696,13.1636093 L83.2506428,12.5844779 L83.0895108,10.6192066 L73.7391345,11.3844152 L74.8043587,24.3754312 L84.2801348,23.5987614 L84.2801348,23.5987614 Z M90.7368768,13.6935246 L90.7719348,13.6975698 L93.0048605,24.1502509 L94.8683286,24.4023989 L99.7986987,14.9212292 L99.835105,14.9266228 L98.4853716,24.893211 L100.638068,25.1844622 L102.38625,12.2689558 L99.2404672,11.8442145 L94.397068,21.4838194 L94.36201,21.4804484 L92.1681875,10.8841643 L88.9846504,10.4533553 L87.2351207,23.3688617 L89.3871433,23.6594387 L90.7368768,13.6935246 L90.7368768,13.6935246 Z M108.493086,21.5714644 L112.248338,23.0439009 C112.894889,23.2960489 113.33244,23.6547193 113.562339,24.1165412 C113.793587,24.5803857 113.790891,25.1116494 113.556272,25.7130292 C113.316933,26.3245218 112.952195,26.7276889 112.463405,26.9225306 C111.976638,27.1160238 111.408968,27.0870336 110.763766,26.8342114 L107.007165,25.362449 L108.493086,21.5714644 L108.493086,21.5714644 Z M110.403747,16.6943556 L113.870445,18.0528536 C114.448228,18.2800564 114.840608,18.5773754 115.049608,18.9461587 C115.257259,19.3162904 115.241753,19.80508 115.003089,20.417921 C114.788696,20.960646 114.456319,21.3112261 114.002587,21.4669646 C113.550878,21.622703 113.06883,21.6011289 112.558467,21.4008937 L109.091769,20.0423957 L110.403747,16.6943556 L110.403747,16.6943556 Z M111.903826,28.9767952 C112.540263,29.0239887 113.095798,28.9680307 113.576497,28.8095955 C114.057197,28.6511602 114.463735,28.3976638 114.794763,28.0511289 C115.127814,27.7039197 115.387378,27.2926623 115.572781,26.8173565 C115.897742,25.9894481 115.9746,25.2262622 115.805378,24.5257761 C115.634133,23.8246159 115.205347,23.2481812 114.521041,22.7971464 L114.535199,22.7634368 C115.18175,22.7425368 115.742004,22.5726403 116.213264,22.2557698 C116.683177,21.9362026 117.03915,21.4710097 117.279837,20.8595171 C117.674914,19.8502509 117.641878,18.968407 117.179382,18.2133114 C116.71756,17.4561932 115.942913,16.8656005 114.854766,16.4395108 L108.958278,14.129053 L104.204547,26.2624961 L109.778771,28.4468799 C110.560834,28.7536375 111.267388,28.9302759 111.903826,28.9767952 L111.903826,28.9767952 Z M124.87529,36.9221543 L125.974224,35.2865632 L119.971888,31.2562402 L122.098291,28.090232 L127.554531,31.7524459 L128.592788,30.2071966 L123.135873,26.5443086 L125.039119,23.7100031 L130.934258,27.6675133 L132.031844,26.031248 L124.242897,20.8008623 L116.979821,31.6230009 L124.87529,36.9221543 L124.87529,36.9221543 Z M68.2491847,26.0561932 L68.9530417,12.301317 L66.7228128,12.9364064 L66.3439166,23.7713547 L66.3081844,23.7814675 L60.3355127,14.7614456 L58.053371,15.4120414 L65.8099561,26.7533082 L68.2491847,26.0561932 L68.2491847,26.0561932 Z M38.5644873,43.6431797 L31.8468329,36.1569458 L31.8751489,36.133349 L41.2814832,41.2052995 L42.6817811,39.9492788 L38.6528065,30.0487614 L38.6811226,30.0251646 L45.398777,37.5100502 L47.0141424,36.0612104 L38.3096425,26.360254 L35.9459235,28.4805895 L40.1528849,38.4154907 L40.125243,38.4417843 L30.6339605,33.247805 L28.2439479,35.394434 L36.9484478,45.094042 L38.5644873,43.6431797 L38.5644873,43.6431797 Z M47.7523832,23.9392286 C47.8171057,23.3776262 48.0092505,22.8558012 48.3288178,22.3751019 C48.6483851,21.8930542 49.1149263,21.4932581 49.7304641,21.1736908 C50.3460019,20.8541235 50.9433365,20.7037786 51.5211195,20.719285 C52.0955315,20.7347915 52.632863,20.8777203 53.1317654,21.1480715 C53.6279712,21.4164001 54.0803543,21.7831609 54.4902634,22.2416118 C54.9008467,22.7014111 55.2467074,23.2063813 55.5332393,23.7571966 C55.8190969,24.3080119 56.0321417,24.8830981 56.1710254,25.4817811 C56.3112574,26.0818125 56.3476638,26.6609439 56.2829414,27.2238946 C56.2175447,27.7848228 56.0253998,28.3066479 55.7071809,28.7859987 C55.3882879,29.2680464 54.9190499,29.6678426 54.3035121,29.9874098 C53.6906711,30.3069771 53.0926623,30.4600188 52.5162277,30.443164 C51.9384447,30.4276576 51.400439,30.2840546 50.9042333,30.0150517 C50.409376,29.7447005 49.9549702,29.3799624 49.544387,28.9201631 C49.1365005,28.4617121 48.7872687,27.9547193 48.5027595,27.4045782 C48.2169019,26.8544371 48.003857,26.2793509 47.863625,25.6793195 C47.7247413,25.0806366 47.6856381,24.5001568 47.7523832,23.9392286 L47.7523832,23.9392286 Z M46.4768109,28.4549702 C46.9076199,29.287598 47.440232,30.0042647 48.0766698,30.6069928 C48.7104108,31.2110693 49.4095484,31.6641267 50.1707118,31.9681875 C50.9318752,32.2722484 51.7395579,32.4070869 52.5890405,32.3679837 C53.4412198,32.3309031 54.2981185,32.088868 55.1617592,31.6412041 C56.0253998,31.1928661 56.7177955,30.6305895 57.2389464,29.956397 C57.759423,29.2808561 58.1140483,28.5459862 58.3041706,27.7484164 C58.4936187,26.9508467 58.5246315,26.1182189 58.3972092,25.2532299 C58.2684384,24.3868924 57.9893227,23.5374098 57.5585136,22.7061304 C57.132424,21.8856381 56.6025086,21.1736908 55.9660709,20.5696143 C55.3323299,19.9668862 54.6331922,19.5138288 53.8733772,19.209768 C53.1108655,18.9043587 52.3031828,18.7695202 51.4496551,18.8005331 C50.5968015,18.8328943 49.7365318,19.0722327 48.8742396,19.5205707 C48.0092505,19.9695829 47.3182032,20.5345563 46.8004233,21.2141424 C46.2833177,21.8930542 45.9286924,22.6326435 45.7405927,23.429539 C45.549122,24.2271088 45.5194575,25.0583882 45.6482283,25.9247256 C45.7756507,26.791063 46.0507212,27.6351521 46.4768109,28.4549702 L46.4768109,28.4549702 Z M33.4183757,126.769771 L36.024804,124.565836 L40.3618846,129.696441 L41.8687049,128.423565 L36.0571653,121.551521 L26.104735,129.965444 L27.5785199,131.708231 L31.9958294,127.971182 L35.8029947,132.474114 L37.2262151,131.271355 L33.4183757,126.769771 L33.4183757,126.769771 Z" id="Fill-3"></path>
        </g>
    </g>
</svg>