<?xml version="1.0" encoding="UTF-8" standalone="no"?>
<svg width="92px" height="92px" viewBox="0 0 92 92" version="1.1" xmlns="http://www.w3.org/2000/svg" xmlns:xlink="http://www.w3.org/1999/xlink">
    <!-- Generator: Sketch 41 (35326) - http://www.bohemiancoding.com/sketch -->
    <title>Sexual-Recovery-Coming-Soon</title>
    <desc>Created with Sketch.</desc>
    <defs></defs>
    <g id="SVGs" stroke="none" stroke-width="1" fill="none" fill-rule="evenodd">
        <g id="Sexual-Recovery-Coming-Soon">
            <circle id="Oval" stroke="#B5AFA7" stroke-width="2" cx="46" cy="46" r="45"></circle>
            <path d="M24.4875,41.763 C24.4225,41.971 24.3055,42.309 24.0065,42.712 C23.6295,43.193 23.1095,43.609 22.2515,43.609 C20.8085,43.609 19.7035,42.452 19.7035,40.359 C19.7035,38.396 20.7435,37.161 22.2385,37.161 C23.1875,37.161 23.6945,37.681 23.8895,37.967 C24.1235,38.318 24.2015,38.708 24.2275,38.877 L25.9435,38.422 C25.7355,37.785 25.0595,35.588 22.1995,35.588 C19.8595,35.588 17.8445,37.265 17.8445,40.385 C17.8445,43.453 19.7035,45.234 22.1345,45.234 C23.6295,45.234 24.6565,44.571 25.3065,43.817 C25.7615,43.271 25.9825,42.738 26.0995,42.439 L24.4875,41.763 Z M36.7325,40.411 C36.7455,37.278 34.6135,35.588 32.3385,35.588 C29.8295,35.588 27.9315,37.616 27.9315,40.424 C27.9315,41.581 28.2435,42.777 29.1535,43.83 C30.0895,44.909 31.1555,45.234 32.3125,45.234 C35.1335,45.234 36.7195,43.037 36.7325,40.411 Z M35.0165,40.606 C34.9775,42.816 33.5085,43.648 32.3645,43.648 C30.8435,43.648 29.6995,42.413 29.6995,40.346 C29.6995,38.435 30.7525,37.161 32.3255,37.161 C34.1325,37.161 35.0555,38.812 35.0165,40.606 Z M45.3635,35.822 L43.6085,42.634 L41.8145,35.822 L39.3185,35.822 L39.3185,45 L40.9955,45 L40.8265,37.46 L42.8155,45 L44.3625,45 L46.3385,37.46 L46.1825,45 L47.8595,45 L47.8595,35.822 L45.3635,35.822 Z M50.9265,35.822 L50.9265,45 L52.6165,45 L52.6165,35.822 L50.9265,35.822 Z M61.3515,42.309 L57.2955,35.822 L55.7485,35.822 L55.7485,45 L57.4255,45 L57.3215,38.565 L61.3385,45 L62.8335,45 L62.8335,35.822 L61.1435,35.822 L61.3515,42.309 Z M69.9305,39.982 L69.9305,41.49 L72.2185,41.49 C72.0625,43.115 70.9185,43.622 69.9565,43.622 C68.4615,43.622 67.3565,42.465 67.3565,40.45 C67.3565,38.643 68.2015,37.135 69.9305,37.135 C71.4905,37.135 71.9845,38.448 72.1535,38.955 L73.7915,38.292 C73.2325,36.758 71.8285,35.588 69.9175,35.588 C67.3955,35.588 65.4845,37.616 65.4845,40.502 C65.4845,42.972 66.9795,45.234 69.8135,45.234 C70.5805,45.234 71.5035,45.026 72.3225,44.22 L72.3225,45 L73.7915,45 L73.7915,39.982 L69.9305,39.982 Z M33.261,57.648 C33.755,57.284 34.925,56.296 35.12,56.127 C36.082,55.256 36.953,54.242 36.953,52.825 C36.953,51.161 35.796,50.082 34.132,50.082 C33.183,50.082 32.351,50.472 31.87,51.031 C31.532,51.434 31.129,52.227 31.129,53.462 L32.767,53.605 C32.754,52.981 32.715,51.577 34.002,51.577 C34.821,51.577 35.159,52.214 35.159,52.89 C35.159,54.047 34.353,54.892 33.872,55.386 C33.352,55.919 32.247,56.972 31.129,57.739 L31.129,59 L37.096,59 L37.096,57.648 L33.261,57.648 Z M45.571,54.567 C45.571,53.709 45.519,52.37 44.843,51.356 C44.167,50.342 43.205,50.082 42.425,50.082 C41.294,50.082 40.423,50.654 39.942,51.317 C39.227,52.305 39.162,53.761 39.162,54.658 C39.162,55.672 39.253,56.881 39.799,57.752 C40.098,58.22 40.839,59.117 42.347,59.117 C42.802,59.117 43.257,59.039 43.673,58.844 C45.35,58.077 45.571,56.14 45.571,54.567 Z M43.894,54.619 C43.894,56.465 43.621,57.674 42.386,57.674 C40.982,57.674 40.852,56.114 40.852,54.684 C40.852,53.176 41.008,51.512 42.412,51.512 C43.504,51.512 43.894,52.617 43.894,54.619 Z M50.419,50.225 C50.068,51.876 48.963,51.889 48.144,51.902 L47.975,51.902 L47.975,52.903 L49.405,52.903 C50.12,52.903 50.12,53.15 50.12,53.982 L50.12,59 L51.719,59 L51.719,50.225 L50.419,50.225 Z M61.962,50.199 L56.138,50.199 L56.138,51.733 L60.103,51.733 C59.05,53.202 58.374,54.164 57.711,55.789 C57.165,57.141 57.009,58.168 56.866,59 L59.011,59 C59.271,56.218 60.272,53.722 61.962,51.616 L61.962,50.199 Z" id="COMING-2017" fill="#7C959E"></path>
        </g>
    </g>
</svg>